<?xml version="1.0" encoding="UTF-8"?>
<svg xmlns="http://www.w3.org/2000/svg" xmlns:xlink="http://www.w3.org/1999/xlink" width="67.5pt" height="67.5pt" viewBox="0 0 67.5 67.5" version="1.1">
<g id="surface2689">
<path style=" stroke:none;fill-rule:nonzero;fill:rgb(100%,100%,100%);fill-opacity:1;" d="M 29.035156 6.699219 C 16.726562 6.699219 6.699219 16.726562 6.699219 29.035156 C 6.699219 41.339844 16.726562 51.367188 29.035156 51.367188 C 34.386719 51.367188 39.300781 49.464844 43.152344 46.3125 L 56.488281 59.644531 C 57.046875 60.230469 57.878906 60.464844 58.664062 60.261719 C 59.445312 60.054688 60.054688 59.445312 60.261719 58.664062 C 60.464844 57.878906 60.230469 57.046875 59.644531 56.488281 L 46.3125 43.152344 C 49.464844 39.300781 51.367188 34.386719 51.367188 29.035156 C 51.367188 16.726562 41.339844 6.699219 29.035156 6.699219 Z M 29.035156 11.167969 C 38.925781 11.167969 46.898438 19.140625 46.898438 29.035156 C 46.898438 38.925781 38.925781 46.898438 29.035156 46.898438 C 19.140625 46.898438 11.167969 38.925781 11.167969 29.035156 C 11.167969 19.140625 19.140625 11.167969 29.035156 11.167969 Z M 29.035156 11.167969 "/>
</g>
</svg>
